<svg xmlns="http://www.w3.org/2000/svg" width="10" height="6" viewBox="0 0 10 6">
  <path id="flecha" d="M1.006,0a1.122,1.122,0,0,1,.446.314Q3.619,2.438,5.79,4.559a.553.553,0,0,1,.18.608.652.652,0,0,1-.158.243q-2.246,2.206-4.5,4.405a.566.566,0,0,1-.833,0C.36,9.706.239,9.593.132,9.47a.524.524,0,0,1,.011-.705C.171,8.732.2,8.7.232,8.672L3.892,5.09a.829.829,0,0,0,.114-.118.444.444,0,0,1-.1-.057Q2.053,3.107.206,1.3A.53.53,0,0,1,.12.552,1.679,1.679,0,0,1,.787,0Z" transform="translate(10 -0.001) rotate(90)" fill="#2b2e34"/>
</svg>
