<svg xmlns="http://www.w3.org/2000/svg" width="23.5" height="23.5" viewBox="0 0 23.5 23.5">
  <defs>
    <style>
      .cls-1 {
        fill: #02293a;
      }
    </style>
  </defs>
  <path id="ic_exit_to_app_24px" class="cls-1" d="M12.256,19.437,14.1,21.278l6.528-6.528L14.1,8.222l-1.841,1.841,3.368,3.381H3v2.611H15.625ZM23.889,3H5.611A2.61,2.61,0,0,0,3,5.611v5.222H5.611V5.611H23.889V23.889H5.611V18.667H3v5.222A2.61,2.61,0,0,0,5.611,26.5H23.889A2.619,2.619,0,0,0,26.5,23.889V5.611A2.619,2.619,0,0,0,23.889,3Z" transform="translate(-3 -3)"/>
</svg>
